/* XPM */
static char *_884fc14817b464fe1c5ea580327395fC9UwFPuvU5QVzOvL[] = {
/* columns rows colors chars-per-pixel */
"100 80 204 2 ",
"   c None",
".  c #0F0E0F",
"X  c #130F0F",
"o  c #0F1112",
"O  c #141315",
"+  c #181918",
"@  c #130E13",
"#  c #1C201C",
"$  c #2D221E",
"%  c #39271B",
"&  c #1E1E22",
"*  c #1D2124",
"=  c #222325",
"-  c #25262B",
";  c #26282B",
":  c #29292E",
">  c #252827",
",  c #342B26",
"<  c #31322C",
"1  c #2C2D32",
"2  c #272E3A",
"3  c #2D3236",
"4  c #2D323B",
"5  c #333334",
"6  c #363A35",
"7  c #34363B",
"8  c #373A3D",
"9  c #393B3E",
"0  c #3C3636",
"q  c #462816",
"w  c #563B1D",
"e  c #6B391B",
"r  c #7C3D14",
"t  c #423B36",
"y  c #573B20",
"u  c #3A4536",
"i  c #3A4439",
"p  c #384838",
"a  c #3D513C",
"s  c #66441E",
"d  c #73411D",
"f  c #58472A",
"g  c #5E522F",
"h  c #4C4F33",
"j  c #45413A",
"k  c #4B423A",
"l  c #444B3D",
"z  c #4B4637",
"x  c #534B3A",
"c  c #554C35",
"v  c #42533B",
"b  c #4A543A",
"n  c #5C5338",
"m  c #63502C",
"M  c #615C3D",
"N  c #6A5B3C",
"B  c #745B3A",
"V  c #363A42",
"C  c #3C3D43",
"Z  c #3C424B",
"A  c #3F4046",
"S  c #3F4652",
"D  c #434445",
"F  c #484640",
"G  c #454D42",
"H  c #4C4945",
"J  c #44454B",
"K  c #4D4D4B",
"L  c #44484F",
"P  c #524D42",
"I  c #495044",
"U  c #5C564C",
"Y  c #434A56",
"T  c #4D4F54",
"R  c #444955",
"E  c #4D5157",
"W  c #4C505B",
"Q  c #475457",
"!  c #535456",
"~  c #5A5B5E",
"^  c #6B5C4D",
"/  c #4A6044",
"(  c #536B4C",
")  c #53674E",
"_  c #5F704E",
"`  c #586855",
"'  c #5A7153",
"]  c #5E765B",
"[  c #7D6B44",
"{  c #656958",
"}  c #617B5A",
"|  c #70734C",
" . c #656464",
".. c #6A6A6D",
"X. c #67676C",
"o. c #787668",
"O. c #746E64",
"+. c #893D0A",
"@. c #844514",
"#. c #8C4413",
"$. c #81441D",
"%. c #8E4A19",
"&. c #974913",
"*. c #A5541B",
"=. c #AB541A",
"-. c #A75116",
";. c #B55A1D",
":. c #BA5B1D",
">. c #BC601F",
",. c #845A2E",
"<. c #995529",
"1. c #985F35",
"2. c #815338",
"3. c #A45625",
"4. c #AD5A23",
"5. c #A65F2F",
"6. c #B45B23",
"7. c #BB5F24",
"8. c #B55E2A",
"9. c #A45F35",
"0. c #8B6131",
"q. c #9D613A",
"w. c #A9612A",
"e. c #BA6124",
"r. c #B3612A",
"t. c #BC642A",
"y. c #BA662A",
"u. c #A56232",
"i. c #AC6230",
"p. c #B36831",
"a. c #BE6A30",
"s. c #B7703F",
"d. c #C36425",
"f. c #C6692B",
"g. c #CC6C2B",
"h. c #C66928",
"j. c #D06E2D",
"k. c #D3712F",
"l. c #D16F32",
"z. c #C57439",
"x. c #D47331",
"c. c #D97734",
"v. c #DA7935",
"b. c #DE7D3A",
"n. c #D77B3B",
"m. c #C56F37",
"M. c #E07F3B",
"N. c #9A6140",
"B. c #897246",
"V. c #8B724B",
"C. c #91704B",
"Z. c #8D7E5B",
"A. c #B06F43",
"S. c #B87545",
"D. c #C27C4D",
"F. c #728C6C",
"G. c #E2823E",
"H. c #968559",
"J. c #B78C5E",
"K. c #8B887A",
"L. c #A9956C",
"P. c #96A377",
"I. c #DD8D4E",
"U. c #CA8657",
"Y. c #DE8C51",
"T. c #DE9256",
"R. c #E78642",
"E. c #E98642",
"W. c #E38947",
"Q. c #ED8944",
"!. c #E48A4B",
"~. c #EC8D4B",
"^. c #F28D45",
"/. c #F48F49",
"(. c #EC914F",
"). c #E6904F",
"_. c #F4924C",
"`. c #FC944B",
"'. c #F89147",
"]. c #E48E54",
"[. c #E69253",
"{. c #ED9253",
"}. c #ED985A",
"|. c #F29654",
" X c #FB9752",
".X c #FC9A54",
"XX c #F69C5C",
"oX c #FB9D5B",
"OX c #F29858",
"+X c #FDA15E",
"@X c #CA8960",
"#X c #EF9E64",
"$X c #E7A268",
"%X c #FCA364",
"&X c #F4A36A",
"*X c #FDA669",
"=X c #FDA96E",
"-X c #F4A366",
";X c #FDAA71",
":X c #9C9A8B",
">X c #A5A398",
",X c #AFAFA1",
"<X c #B0AEA1",
"1X c #BEBBAE",
/* pixels */
"                                                                                                                                                                                                        ",
"                                                                                                                                                                                                        ",
"                                                                                                                                                                                                        ",
"                                                                                                                                                                                                        ",
"                                                                                                                                                                                                        ",
"                                                                                                                                                                                                        ",
"                                                                                                                                                                                                        ",
"                                                                                                                                                                                                        ",
"                                                                                                                                                                                                        ",
"                                                                                                                                                                                                        ",
"                                                                                                                                                                                                        ",
"                                                                                                                                                                                                        ",
"                                                                                                                                                                                                        ",
"                                                                                                                                                                                                        ",
"                                                                                                                                                                                                        ",
"                                                                                                                                                                                                        ",
"                                                                                                                                                                                                        ",
"                                                                                                                                                                                                        ",
"                                                                                                                                                                                                        ",
"                                                                                                                                                                                                        ",
"                                                                                                                                                                                                        ",
"                                                                                                                                                                                                        ",
"                                                                                                                                                                                                        ",
"                                                                                                                                                                                                        ",
"                                                                                                                                                                                                        ",
"                                                                                                                                                                                                        ",
"                                                                                                                                                                                                        ",
"                                                                                                                                                                                                        ",
"                                                                                                                                                                                                        ",
"                                                                                                                                                                                                        ",
"                                                                                                                                                                                                        ",
"                                                                    j                                                             j                                                                     ",
"                                                                  [ c j                                                         j c [                                                                   ",
"                                                            L.H.B.B x D                                                         D x B B.H.L.                                                            ",
"                                                      X.{ Z.B.B n P J D                                                         D D P n B B.Z.~  .                                                      ",
"                                            P.{ ....~ T J x M U K D C C                                                         C C D K U M x J T ~ X...{                                               ",
"                                          6 b u T E J A J ! ! J C C 8 7                                                         7 8 C C J ! ! J D J E T i b                                             ",
"                                          H 8 5 A S J E ! J C C C 8 1                                                             1 8 C C C J ! E Z L D 5 6 D                                           ",
"                                        >X<X .: 3 2 Z L 7 1 C L C C                                                                 C C L C 1 7 L Z 2 1 :  .,X>X                                        ",
"                                        1X:XK ; V 4 ; 1 1 1 Z W D                                                                     D W Z 1 1 1 - 4 8 ; K :X1X                                        ",
"                                        O.K.K - 3 7 ; 1 V Y Y 7                                                                         7 Y Y V 1 - 7 5 - K K.O.                                        ",
"                                        H o.D = 1 C 8 ` Q Y 0 t                                                                         0 0 Y Q ` 6 C 1 - D o.H                                         ",
"                                        5 F 5 - : 7 i ] ] x $.q.                                                                        1.$.x ] ] p 7 1 - 7 F 5                                         ",
"                                        : . & ; 1 C p ' F.f &.4.                                                                        4.&.g F.( p V 1 ; & . -                                         ",
"                                        , O - - 1 C p v ' f r e                                                                         e r f ' v p 9 1 - ; o ,                                         ",
"                                      U.k 3 5 = = 7 b | H.C.2.%                                                                         % B C.H.| b 7 = * 3 3 k U.                                      ",
"                                    &Xu., , $ X $ ^ J.$X&XXX[.S.                                                                        D.[.XX-X$XJ.B $ @ $ , , u.-X                                    ",
"                                  $XXXm.<.5.9.N.U.&X*XXX~.Q.E.W.                                                                        W.E.E.~.XX*X&X@Xq.u.5.<.m.XX#X                                  ",
"                                  ~.`.^.~.OX%X*X+X.X/.R.R.G.G.x.T.                                                                    ].x.R.G.R.R.~. X%X*X%XOXQ.Q. X).                                  ",
"                                  Q.`.`.`.oX.X X`.^.E.R.b.x.x.f.n.                                                                    n.g.c.x.b.R.E.^.`. X.X.X`.`.`.Q.                                  ",
"                                I.E.`.`.`.`.`.`.^.R.R.M.x.;.=.t.z.                                                                    z.y.=.;.x.G.R.E.^.`.`.`.`.`.'.Q.I.                                ",
"                                !.R.Q.'.'.'./.^.E.R.G.c.7.+.#.A.                                                                        A.#.+.e.c.G.R.E.^./.'.'./.Q.R.W.                                ",
"                                R.R.R.R.E.E.R.R.R.R.b.k.e.r %.                                                                            %.r e.k.M.R.R.R.E.E.E.E.R.R.W.                                ",
"                              Y.R.E.E.R.R.R.R.R.R.R.R.x.p.s %.                                                                            %.s p.x.G.R.R.R.E.E.E.E.R.R.R.I.                              ",
"                              W.R.R.R.R.R.R.R.R.R.R.G.x.u.s *.S.                                                                        S.*.s u.x.R.R.R.R.R.R.R.R.R.R.R.W.                              ",
"                            ).^.E.R.R.R.R.R.R.R.R.R.b.x.,.s -.S.                                                                        s.*.s ,.x.b.E.R.R.R.R.R.R.R.R.E./.(.                            ",
"                          [.`.`.Q.R.R.R.R.R.R.R.R.R.c.a.g f #.                                                                            #.f g a.c.R.R.R.R.R.R.R.R.R.Q.`.`.(.                          ",
"                        }.oX X'.E.R.R.R.R.R.R.R.R.G.l.1._ h @.i.                                                                        i.@.h _ 0.k.G.E.R.R.R.R.R.R.R.E.'. XoXOX                        ",
"                    [.XX=X*X`.Q.R.R.R.R.R.R.G.G.M.x.w.M ( h @.3.                                                                        3.@.h ) M w.x.M.G.G.R.R.R.R.R.R.Q. X*X=X#X[.                    ",
"                  {.%X;X%X X^.R.R.R.R.R.R.c.x.k.j.r.m ' / h d                                                                             d h / ' m r.g.k.k.c.R.R.R.R.R.R.^. X*X;X%X{.                  ",
"              [.OX*X=X%X X/.E.R.R.R.R.R.R.G.k.d.3.w v } ] l                                                                                 l ] } l y *.d.x.G.R.R.R.R.R.R.E./. X%X=X*XOX[.              ",
"          ].{.oX;X=XoX`.'.E.R.R.R.R.G.G.b.c.k.4.q + v ) I k                                                                                 k I ) a # q 4.j.c.b.G.G.R.R.R.R.E.'.`.oX=X*XoX{.[.          ",
"        ~.|.%X=X*X.X`.`.Q.R.R.R.R.G.M.b.x.d.7.$.O + p G j                                                                                     j G p + O $.:.d.x.b.M.G.R.R.R.R.Q.'.`..X*X;X%X|.~.        ",
"    !./..X*X=X%X X`.`.^.E.R.R.R.R.R.R.R.c.:.:.e O + > <                                                                                         < > + O e :.:.c.R.R.R.R.E.R.R.R.^.`.`. X%X=X*X.X~.!.    ",
"Y.~._.+X=X=X+X`.`.`.^.E.R.R.R.E.R.R.M.x.d.:.:.d O +                                                                                                 + O d :.:.d.c.b.R.R.E.R.R.E.R.^.`.`.`.+X=X=X%X_.~.Y.",
"_.oX*X;X=XoX`.`.`.^.E.R.R.R.R.R.G.c.x.d.:.;.6.                                                                                                            6.:.;.d.x.c.G.R.R.R.R.R.R.^.`.`.`.oX=X=X*XoX(.",
"*X=X;X=XoX`.`.'.^.E.R.R.R.R.R.G.x.c.g.d.:.:.8.                                                                                                            6.;.:.d.g.c.c.G.R.R.R.R.R.R.^.`.`.`.oX*X;X;X*X",
";X;X*X.X`.`.'.Q.E.R.R.R.R.R.G.c.b.c.j.d.6.8.                                                                                                                6.6.d.j.c.b.c.G.R.R.R.R.R.R.Q.`.`.`..X*X;X;X",
";X*X.X`.`.'.Q.E.R.R.R.R.R.G.c.b.c.d.f.e.                                                                                                                        y.f.d.x.b.c.G.R.R.R.R.R.R.Q.'.`.`..X*X;X",
"*X.X`.`.'.Q.E.R.R.R.R.R.R.b.G.c.d.6.                                                                                                                                6.d.c.M.b.R.R.R.R.R.R.R.Q.'.`.`..X*X",
" X`.`.'.Q.R.R.R.R.R.R.R.G.G.c.f.r.                                                                                                                                    8.g.c.M.G.R.R.R.R.R.R.R.E.'.`.`. X",
"`.`./.E.R.R.R.R.R.R.R.R.G.c.g.t.                                                                                                                                        t.k.c.G.R.R.R.R.R.R.R.R.E./.`.`.",
"`.^.E.R.R.R.R.R.R.R.R.M.x.k.f.                                                                                                                                            f.k.x.b.R.R.R.R.R.R.R.R.E.^.`.",
"Q.R.R.R.R.R.R.R.R.G.c.k.k.g.                                                                                                                                                g.k.k.c.R.R.R.R.R.R.R.R.R.Q.",
"R.R.R.R.R.R.E.R.M.x.x.x.j.y.                                                                                                                                                t.g.x.k.x.M.R.R.R.R.E.R.R.R.",
"R.R.R.R.R.R.G.c.k.k.x.k.h.                                                                                                                                                    h.k.x.k.k.c.G.R.E.R.R.R.R.",
"R.R.R.R.G.c.x.k.x.x.x.f.                                                                                                                                                        h.x.x.k.k.x.c.G.R.R.R.R.",
"R.R.G.c.x.k.x.x.x.x.g.r.                                                                                                                                                        e.f.x.x.k.x.k.x.c.G.G.R.",
"G.c.k.k.x.x.x.k.k.g.7.                                                                                                                                                            7.g.x.x.x.x.x.k.k.c.G.",
"x.k.k.x.x.k.x.k.g.7.                                                                                                                                                                >.g.x.x.x.x.x.k.k.x."
};
